<svg id="Layer_1" data-name="Layer 1" xmlns="http://www.w3.org/2000/svg" xmlns:xlink="http://www.w3.org/1999/xlink" viewBox="0 0 400 300"><defs><linearGradient id="linear-gradient" x1="184.42" y1="202.13" x2="216.32" y2="146.54" gradientUnits="userSpaceOnUse"><stop offset="0" stop-color="#fff" stop-opacity="0"/><stop offset="0.99" stop-color="#0048aa"/></linearGradient><linearGradient id="linear-gradient-2" x1="116.92" y1="234.54" x2="163.24" y2="201.64" xlink:href="#linear-gradient"/><linearGradient id="linear-gradient-3" x1="241.13" y1="158.06" x2="254.45" y2="145.54" gradientUnits="userSpaceOnUse"><stop offset="0" stop-opacity="0"/><stop offset="0.99" stop-color="#552800"/></linearGradient><linearGradient id="linear-gradient-4" x1="153.63" y1="105.89" x2="166.94" y2="93.37" xlink:href="#linear-gradient-3"/></defs><title>-</title><ellipse cx="200" cy="180.86" rx="146.75" ry="73.73" fill="#cbe3ff"/><path d="M227.34,226c.09,0,59-30.6,59.07-30.54L189.8,136.59,135.08,117l-21.49,38.29C126.44,163,213.64,219.93,227.34,226Z" opacity="0.32" fill="url(#linear-gradient)"/><path d="M119.08,237.58c5,1.53,10,3,15.17,4.08a77.7,77.7,0,0,0,9.5,1.09l5.34-3.62,37-27.48-26.13-18.11-69,32C99.19,231.62,109.4,234.61,119.08,237.58Z" opacity="0.32" fill="url(#linear-gradient-2)"/><path d="M154.64,182.45c-3.72-2.6-8.1-4-12.83-3-5,1.11-9.4,4.28-14.54,5.05-.81.12-4.05-.09-4.55.38C108.43,198.43,148.37,197,148.37,197c3.88-3.17,7.53-6.3,11.38-9.51C158.59,184.87,156.63,183.85,154.64,182.45Z" fill="#f8997c"/><path d="M135.83,202.06l-1.42,40.8c-.05,1.55,2.35,1.55,2.4,0l1.42-40.8C138.29,200.51,135.89,200.51,135.83,202.06Z" fill="#844040"/><path d="M165.79,223.89q-10.91-10.68-20.85-22.29c-1-1.18-2.7.53-1.7,1.7q9.93,11.6,20.85,22.29C165.19,226.67,166.9,225,165.79,223.89Z" fill="#844040"/><path d="M127.5,198.28q-8.47,16-16,32.47c-.64,1.4,1.44,2.62,2.08,1.21q7.48-16.48,16-32.47C130.3,198.13,128.22,196.91,127.5,198.28Z" fill="#844040"/><path d="M159.08,186.27a19.35,19.35,0,0,1-9.68,7c-5.46,1.64-13.4.86-16.27-4.76-5.22-10.23-.32-23-5.83-33a10.1,10.1,0,0,0-6.39-5.18c-3.57-.77-6,1.88-7.32,5-2.32,5.58-2.24,12.53-2.13,18.48a99.42,99.42,0,0,0,1.06,14.36s3.34,19.94,29.38,14.59a39.53,39.53,0,0,0,12.79-4.67,17.56,17.56,0,0,0,5.22-4.53C161.51,191.28,160.46,188.56,159.08,186.27Z" fill="#fd686a"/><path d="M241.22,53.78s-3.26,2.32-4,13.91-1.46,18.85-2.34,20.89-12.68,9.67-12.68,9.67l5.82,6.81,17.77-10.81" fill="#e6e6e6"/><polyline points="261.01 138.66 261.01 179.43 264.03 179.43 264.68 137.61" fill="#895851"/><polyline points="278.17 122.99 284.21 167.31 281.19 167.31 274.88 124.63" fill="#895851"/><path d="M217.23,154s-2.81,9.22-3.44,10.16-9.84,7-9.69,8.91,3.63,2.66,5.8,2.5,14.67-5.37,15.45-6.9.78-14.66.78-14.66Z" fill="#5c2d1d"/><path d="M232.05,164.77s-2.81,9.22-3.44,10.16-9.84,7-9.69,8.91,3.63,2.66,5.8,2.5,14.67-5.37,15.45-6.9.78-14.66.78-14.66Z" fill="#5c2d1d"/><path d="M279.81,80.85c-.8,2.24-5.32,36.24-5.32,36.24l-4.54-1.52,5.92-34.9" fill="#895851"/><polyline points="278.17 122.99 278.25 117.51 273.41 119.17 274.88 124.63" fill="#a9cbf8"/><path d="M267.21,114.51s12.17,4.67,11,9.27S267.23,139.64,261,138.67s-13.82-6.39-13.82-6.39" fill="#a9cbf8"/><path d="M267.21,108.91s12.17,4.67,11,9.27S267.23,134,261,133.07s-13.82-6.39-13.82-6.39" fill="#cbe3ff"/><path d="M272,66.22s11.76,2.93,13,9.7,1.54,19.25-15.16,14.4S261,72.94,261,72.94" fill="#cbe3ff"/><path d="M243.56,93.18s-24.07,16.52-27.18,24.93-5.14,41.55-5.14,41.55,8.42,5.23,18.22,2.15l7.38-37.55s17.5-7.48,20.58-16.82-1.07-26.79-1.07-26.79" fill="#895851"/><path d="M257,102.85S233,119.37,229.87,127.78s-5.14,41.55-5.14,41.55,8.42,5.23,18.22,2.15l7.38-37.55s17.5-7.48,20.58-16.82-1.07-26.79-1.07-26.79" fill="#895851"/><path d="M266.61,103.2c4.11-10,7.82-39,5.34-42.15-2.91-3.74-19.45-9.84-19.45-9.84a12.29,12.29,0,0,0-11.28,2.58c-4,3.41-1.19,29.88,0,43.16C248.23,103.43,256.52,105,266.61,103.2Z" fill="#e6e6e6"/><path d="M249.36,106.19c-4.33,4.33-9,8.49-13,13.1-3.5,4-4.88,9.08-6.24,14.12-3.17,11.73-4.58,23.83-6,35.87-.09.73,1.06.72,1.14,0,1.35-11.58,2.72-23.21,5.66-34.52,1.45-5.54,2.89-11.06,6.86-15.37s8.24-8.28,12.36-12.4A.57.57,0,0,0,249.36,106.19Z" fill="#5c2d1d"/><path d="M240.19,104.84s-11.68,2.81-11.29,3.86,4.22,0,4.22,0-7.83,3.27-6.23,6.51c1,2.1,8.47.67,10.49,0s7.52-6,7.52-6Z" fill="#ffd8c6"/><path d="M261,72.94s-2.51,18.18-4.42,20.63-21.7,11.17-21.7,11.17,6.46,2.9,6.31,9.76c0,0,24.92-6.22,27.38-11.94S278.31,68,271.95,61,261,72.94,261,72.94Z" fill="#e6e6e6"/><path d="M246.33,51.14s-3.44,8,4,11S266,57,266,57,254.94,50,246.33,51.14Z" fill="#6ca3d8"/><path d="M259.15,53.7,262,54.88l-7.89,5.83L252.68,58l-4.11.76s.84-7.14,1-7.3S259.15,53.7,259.15,53.7Z" fill="#4687bc"/><path d="M268.2,39.69c-.83-3.68-3.76-5-7.07-5A7.1,7.1,0,0,0,259,33c-2.52-1.2-6-1.07-8.1.82a5.21,5.21,0,0,0-2.61-.21c-2.6.49-3.43,3-3.35,5.31,0,.09,0,.18,0,.28-.59,4,2.89,6.46,2.89,6.46l11,8.81a9.18,9.18,0,0,0,3.94-2.38,4.87,4.87,0,0,0,.85-1.52,1.91,1.91,0,0,0,.3-.2C267,47.88,269.11,43.72,268.2,39.69Z" fill="#895851"/><path d="M248.21,42.5c0,1.38-.43,14.38,5.44,14.54s8-8.1,8-8.1-4.82-2.48-4.82-4.49.39-2.81-2-3.85S248.16,40.19,248.21,42.5Z" fill="#ffe0ce"/><path d="M288.63,151.18s-.91,43.07-2.22,44.3-7.08-39.7-7.08-39.7" fill="#844040"/><path d="M136.5,113.57s-13.48,58.2-11.16,59.74,18.85-54.38,18.85-54.38" fill="#844040"/><path d="M228.05,173.2c.89,2.55-2.17,52.15-.71,52.83s9.26-52.27,9.26-52.27" fill="#844040"/><polyline points="298.26 141.48 298.26 150.34 295.27 150.34 294.24 145.46" fill="#a85c5c"/><polygon points="123.68 113.41 123.68 104.71 127.34 109.53 123.68 113.41" fill="#a85c5c"/><path d="M127.22,106.75l46.45-26.82a10.83,10.83,0,0,1,10.83,0l110.16,63.6a7.24,7.24,0,0,1,0,12.54l-46.53,26.87a10.36,10.36,0,0,1-10.36,0L127.22,119.11A7.14,7.14,0,0,1,127.22,106.75Z" fill="#a85c5c"/><path d="M126.7,98.84,173.15,72A10.83,10.83,0,0,1,184,72l110.16,63.6a7.24,7.24,0,0,1,0,12.54L247.61,175a10.36,10.36,0,0,1-10.36,0L126.7,111.2A7.14,7.14,0,0,1,126.7,98.84Z" fill="#c96f6f"/><path d="M187.24,115.42c.71.18,21.84,13,21.84,13L240,110.87,218.79,98.25Z" fill="#fff"/><path d="M184.9,129.69c.71.18,21.84,13,21.84,13l30.9-17.54-21.19-12.62Z" fill="#fd686a"/><path d="M177.11,205.4s-.21,3.64.91,4.66,7.2-1.81,8.82-.81-6.1,8.3-8.82,8.7-5.24-3.47-5.24-3.47V220l-3.08,1.75-2.26-1.35.67-15Z" fill="#8787d1"/><path d="M166.7,208.08c3.24,2.79,6.72,2.7,10.74,1,2.89-5.08,6.29-36-.93-41-7.76-5.31-19.89-4.36-21.92-3.78l-29.72,4.87c-2.28,3.88,3.76,24.2,17,24.77s21.62-4.4,21.62-4.4Z" fill="#124577"/><path d="M155.15,123.16a7.05,7.05,0,0,0-3.33,3l0,.1c-2.09,1.71-2.42,4.83-4.64,6.37,0,.06-2.09,1.53-2.11,1.59s.2-2.86.19-2.84v0c-.72,2-1.43,4-2,6a1.24,1.24,0,0,0,.32.14l-.23.11-.2.12a.67.67,0,0,1-.4.45,1.58,1.58,0,0,0,2.21,1.86l6.72-3.28a18.74,18.74,0,0,0,2.63-.77c0-.7.11-1.4.18-2.1a5.89,5.89,0,0,0,.45-5.57.63.63,0,0,1,.12-.12l0-.07a5.12,5.12,0,0,0,2.11-3.34C157.18,123.88,156.22,122.67,155.15,123.16Z" fill="#f7931e"/><path d="M146.6,129.52s7.66,4.76,8.46,8.72c0,0-5.38,11.69-5,12.15,6.08,7.93-12.15-5-12.15-5S141.58,134.27,146.6,129.52Z" fill="#fd686a"/><path d="M164,132.42c.63,5.29-6.12,12.66-9,14.08-3.9,1.95-5.42-14.27-22.56-14.2-1.11,0-6.67-2.37-9.59,4.94s0,28.26,1.95,31.91c1.72,3.22,13.15,11,29.48,2.68l.24-7.55s9.63-.21,14.74-7.29c4.76-6.61,7.58-16.53,7.13-21.4C172.6,133.92,167.83,131.18,164,132.42Z" fill="#fd686a"/><path d="M146.6,129.52s7.66,4.76,8.46,8.72c0,0-5.38,11.69-5,12.15,6.08,7.93-12.15-5-12.15-5S141.58,134.27,146.6,129.52Z" fill="#8787d1"/><polyline points="156.91 109.44 177.25 113.93 173.82 142.46 154.26 136.12" fill="#124577"/><path d="M177.9,126a1.62,1.62,0,0,0-2.17-1.15,1.83,1.83,0,0,0-.66-1,1.64,1.64,0,0,0-1.85-.08,1.89,1.89,0,0,0-.47.38l-.1-.11a1.71,1.71,0,0,0-1.86-.51,1.6,1.6,0,0,0-.51.37,25.77,25.77,0,0,0-.72-2.76c-.27-.91-.72-2.58-1.84-2.78-.73-.13-1.07.4-1.22,1a2,2,0,0,0-.08,1.36,14.62,14.62,0,0,0,.27,1.83c.1.86.19,1.72.27,2.58v0a.57.57,0,0,0-.4.16,3.12,3.12,0,0,0-1.1,3.52,26.92,26.92,0,0,0,2,5.21.59.59,0,0,0,.82.27l.09.32a.63.63,0,0,0,1.24-.07l0-.12a.6.6,0,0,0,.21.11l.05.7c0,.64,1,.64,1.21.11l.06.51c.08.71,1.2.63,1.24-.07l0-.57a.72.72,0,0,0,.54-.28.69.69,0,0,0,.44.26.59.59,0,0,0,.61.08l0,.15a.7.7,0,0,0,.83.47c0,.07,0,.14,0,.21,0,.8,1.27.91,1.25.1q0-2.41-.13-4.82a.6.6,0,0,0,.18-.14C177.41,129.95,178.53,127.79,177.9,126Zm-6.72-1.21a.41.41,0,0,1,.35-.05.71.71,0,0,0-.08.15h-.38A.52.52,0,0,1,171.18,124.76Z" fill="#f7931e"/><path d="M141.58,113c0,.18,1.06,10.89-1.34,13.25s-8.77,1.39-10.35-1.19-3.52-6-1.83-10S141.3,110.36,141.58,113Z" fill="#f7931e"/><path d="M138.16,120a1.07,1.07,0,0,0-.18-1.14,5.18,5.18,0,0,0-2.9-1.8,2.17,2.17,0,0,0-2.54,1.37c-.73,2.43,3.21,3.15,4.82,3.35a1.08,1.08,0,0,0,1.07-1.07A1,1,0,0,0,138.16,120Z" fill="#ffe8e6"/><path d="M164,132.42c.63,5.29-6.12,12.66-9,14.08-3.9,1.95-5.42-14.27-22.56-14.2-1.11,0-6.67-2.37-9.59,4.94s0,28.26,1.95,31.91c1.72,3.22,13.15,11,29.48,2.68l.24-7.55s9.63-.21,14.74-7.29c4.76-6.61,7.58-16.53,7.13-21.4C172.6,133.92,167.83,131.18,164,132.42Z" fill="#8787d1"/><path d="M162.7,162.43A21.12,21.12,0,0,1,138,154.22c-.34-.52-1.19,0-.84.49A22.09,22.09,0,0,0,163,163.37C163.54,163.16,163.29,162.22,162.7,162.43Z" fill="#fff"/><path d="M153.06,144.69a15.7,15.7,0,0,0-3.8-5.36c-1.87-1.7-4.18-2.79-6.13-4.38-.39-.32-1,.24-.56.56,1.84,1.5,4,2.55,5.81,4.1a15.12,15.12,0,0,1,4,5.48C152.58,145.56,153.26,145.16,153.06,144.69Z" fill="#fff"/><path d="M141.83,114.51l-3.41,1.79s2.64,10,3.43,12.68-2.38,6.34-12.68,6.61-9.78-15.32-7.4-21.14,9.51-8.46,15.32-6.87A6,6,0,0,1,141.83,114.51Z" fill="#b24d16"/><path d="M160.24,188.6a1.64,1.64,0,0,0-2.74-.48,18.42,18.42,0,0,1-8.09,5.15c-5.46,1.64-13.4.86-16.27-4.76-5.2-10.19-.35-22.94-5.77-32.88a11,11,0,0,0-4.07-4.33c-4.89-2.82-8.15.27-9.71,4-2.32,5.58-2.24,12.53-2.13,18.48a99.42,99.42,0,0,0,1.06,14.36s3.34,19.94,29.38,14.59a39.53,39.53,0,0,0,12.79-4.67,17.56,17.56,0,0,0,5.22-4.53A5.12,5.12,0,0,0,160.24,188.6Z" fill="#fd686a"/><path d="M259.57,71.56c-.24,3.46-.47,6.93-.75,10.39-.32,3.87-.83,7.61-3.23,10.79-4.11,5.45-10.93,7.5-17.2,9.35a.5.5,0,0,0,.27,1c6.47-1.91,13.48-4.07,17.73-9.7a17.46,17.46,0,0,0,3.18-8.73c.52-4.33.7-8.72,1-13.07C260.61,70.92,259.61,70.92,259.57,71.56Z" fill="#b6bbbf"/><path d="M241.53,70.21l-.84,26.21c0,.64,1,.64,1,0l.84-26.21C242.55,69.57,241.55,69.57,241.53,70.21Z" fill="#b6bbbf"/><path d="M238.47,160.84c1.89.58,3.79,1.15,5.74,1.54a29.37,29.37,0,0,0,3.59.41l2-1.37,14-10.39-10.69-3.55-25.28,8.81C231,158.59,234.81,159.72,238.47,160.84Z" opacity="0.32" fill="url(#linear-gradient-3)"/><path d="M258.21,139.74a11.86,11.86,0,0,1-7-2.71v7.47a7.76,7.76,0,0,0,7.76,7.76h0a7.76,7.76,0,0,0,7.76-7.76v-7.6C264,138,261,140,258.21,139.74Z" fill="#fd686a"/><ellipse cx="258.92" cy="136.98" rx="7.76" ry="4.11" fill="#5ed18d"/><path d="M258.92,137.68s-5.27-.78-6.67-9.31C252.25,128.37,256.75,130.85,258.92,137.68Z" fill="#5ed18d"/><path d="M259.7,136.59s-6-10.86,0-18.15A30.42,30.42,0,0,1,259.7,136.59Z" fill="#5ed18d"/><path d="M258.92,129.77s-5.27-.78-6.67-9.31C252.25,120.46,256.75,122.94,258.92,129.77Z" fill="#5ed18d"/><path d="M259.56,133.25s-1.32-5.16,6-9.75C265.57,123.5,265,128.61,259.56,133.25Z" fill="#5ed18d"/><ellipse cx="258.92" cy="136.98" rx="7.76" ry="4.11" fill="#146666"/><path d="M258.92,137.68s-5.27-.78-6.67-9.31C252.25,128.37,256.75,130.85,258.92,137.68Z" fill="#5ed18d"/><path d="M259.7,136.59s-6-10.86,0-18.15A30.42,30.42,0,0,1,259.7,136.59Z" fill="#5ed18d"/><path d="M258.92,129.77s-5.27-.78-6.67-9.31C252.25,120.46,256.75,122.94,258.92,129.77Z" fill="#5ed18d"/><path d="M259.56,133.25s-1.32-5.16,6-9.75C265.57,123.5,265,128.61,259.56,133.25Z" fill="#5ed18d"/><path d="M151,108.67c1.89.58,3.79,1.15,5.74,1.54,1.19.24-3.7.32-2.5.41l1.85-1.3,20.23-10.45-15.22-6.41-20.74,11.67C143.44,106.42,147.3,107.55,151,108.67Z" opacity="0.32" fill="url(#linear-gradient-4)"/><path d="M156.1,75.45V97s20.71,1.15,20.71,0V75.45" fill="#fd686a"/><ellipse cx="166.46" cy="96.81" rx="10.35" ry="4.73" fill="#fd686a"/><ellipse cx="166.46" cy="75.45" rx="10.35" ry="4.73" fill="#3129a3"/><path d="M160,79.13l.07,0c.4.14.8.26,1.21.37l-2.82-23.59a1.41,1.41,0,0,0-1.44.27l2.89,22.88Z" fill="#f78b72"/><path d="M163.22,79.86l.88-22.14a1.41,1.41,0,0,0-1.47,0l-.72,21.92A11.6,11.6,0,0,0,163.22,79.86Z" fill="#f78b72"/><path d="M166.46,80.18,169.3,57.1l5.76,3-2.33,19.39A17.61,17.61,0,0,1,166.46,80.18Z" fill="#fcb749"/></svg>