<svg id="Layer_1" data-name="Layer 1" xmlns="http://www.w3.org/2000/svg" xmlns:xlink="http://www.w3.org/1999/xlink" viewBox="0 0 400 300"><defs><linearGradient id="linear-gradient" x1="65.21" y1="264.37" x2="86.12" y2="240.1" gradientUnits="userSpaceOnUse"><stop offset="0" stop-color="#ff0" stop-opacity="0"/><stop offset="0.99" stop-color="#f15a24"/></linearGradient><linearGradient id="linear-gradient-2" x1="113.86" y1="281.83" x2="172.94" y2="213.27" xlink:href="#linear-gradient"/></defs><title>91-100</title><ellipse cx="196.85" cy="231.83" rx="140.11" ry="54.12" fill="#f49231"/><path d="M75.71,258.48c12.48-5.23,30-12.43,31.51-13.33l-.45-.77a5.6,5.6,0,0,1-3.62-.6c-4.82-2.49-9-5.95-13.3-9.27A4,4,0,0,1,88.66,233l-9.36.15-19.8,8.36a52.8,52.8,0,0,0,6.14,8.76C68.71,253.23,72.31,255.75,75.71,258.48Z" opacity="0.48" fill="url(#linear-gradient)"/><path d="M139.68,280.12l-66-29.63,86.5-49.87,70.24,7.6L224,232C217.65,235.84,145.89,276.12,139.68,280.12Z" opacity="0.48" fill="url(#linear-gradient-2)"/><path d="M172.42,218.95l-41.75-24.54s10.56-8.07,16.48-5.25,6.79,3.9,6.79,3.9,4.3-8.88,11.77-7,9.28,7,9.28,7,3.24-8.35,10.56-3.9a17.32,17.32,0,0,1,7.92,12.54l-.8,28.95Z" fill="#fff"/><path d="M225.4,223.81l41.75-24.54s-10.56-8.07-16.48-5.25-6.79,3.9-6.79,3.9-4.3-8.88-11.77-7-9.28,7-9.28,7-3.24-8.35-10.56-3.9a17.32,17.32,0,0,0-7.92,12.54l.8,28.95Z" fill="#fff"/><path d="M218.51,155.56s15.39,15.89,15.37,24.93,0,38.4,0,38.4h-6.44s-13.18-30.24-21.59-40.18S218.51,155.56,218.51,155.56Z" fill="#fd686a"/><path d="M218.51,155.56s15.39,15.89,15.37,24.93,0,38.4,0,38.4h-6.44s-13.18-30.24-21.59-40.18S218.51,155.56,218.51,155.56Z" fill="#363636" opacity="0.61"/><path d="M179.92,155.56s-15.39,15.89-15.37,24.93,0,38.4,0,38.4H171s13.18-30.24,21.59-40.18S179.92,155.56,179.92,155.56Z" fill="#fd686a"/><path d="M179.92,155.56s-15.39,15.89-15.37,24.93,0,38.4,0,38.4H171s13.18-30.24,21.59-40.18S179.92,155.56,179.92,155.56Z" fill="#363636" opacity="0.61"/><path d="M214.32,49.36a133.63,133.63,0,0,0-14.69-28.64S192,31,185.05,49.6C193.74,54.27,204.6,52.77,214.32,49.36Z" fill="#fd686a"/><ellipse cx="199.22" cy="113.94" rx="15.64" ry="13.77" fill="#fd686a"/><path d="M199.63,20.72s-46.37,62.65-15.52,159.62c0,0,3.49,20.71,14.49,20.28s19.49-22.86,19.49-22.86S243.32,84.84,199.63,20.72Z" fill="#fd686a"/><path d="M214.32,49.36a133.63,133.63,0,0,0-14.69-28.64S192,31,185.05,49.6C193.74,54.27,204.6,52.77,214.32,49.36Z" fill="#363636" opacity="0.61"/><ellipse cx="199.22" cy="113.94" rx="15.64" ry="13.77" fill="#363636" opacity="0.61"/><path d="M184.11,180.34s-10.6,10.95-10.59,17.18,0,26.46,0,26.46H178s9.09-20.84,14.87-27.68S184.11,180.34,184.11,180.34Z" fill="#fd686a"/><path d="M214.32,180.34s10.6,10.95,10.59,17.18,0,26.46,0,26.46h-4.44s-9.09-20.84-14.87-27.68S214.32,180.34,214.32,180.34Z" fill="#fd686a"/><path d="M184.11,180.34s-10.6,10.95-10.59,17.18,0,26.46,0,26.46H178s9.09-20.84,14.87-27.68S184.11,180.34,184.11,180.34Z" fill="#363636" opacity="0.29"/><path d="M214.32,180.34s10.6,10.95,10.59,17.18,0,26.46,0,26.46h-4.44s-9.09-20.84-14.87-27.68S214.32,180.34,214.32,180.34Z" fill="#363636" opacity="0.29"/><path d="M194.51,198.52s-18,3.13-21,10.59-.78,12.48-.78,12.48-11.39.34-13.43,8.23,0,10.35,0,10.35-25.41,1-24.68,26.68v8.22l59.9-34.58Z" fill="#fff"/><path d="M203.1,196.17s18,3.13,21,10.59.78,12.48.78,12.48,11.39.34,13.43,8.23,0,10.35,0,10.35,25.41,1,24.68,26.68v8.22l-59.9-34.58Z" fill="#fff"/><polygon points="284.55 114.29 277.79 112.02 274.95 102.97 273.23 103.99 271.42 111.26 264.89 111.75 263.17 112.77 265.55 112.77 269.65 119.13 268.28 128.5 274.45 124.79 277.99 127.91 278.7 131.08 280.42 130.06 279.48 120.39 284.55 114.29" fill="#fd686a"/><polygon points="284.55 114.29 277.79 112.02 274.95 102.97 273.23 103.99 271.42 111.26 264.89 111.75 263.17 112.77 265.55 112.77 269.65 119.13 268.28 128.5 274.45 124.79 277.99 127.91 278.7 131.08 280.42 130.06 279.48 120.39 284.55 114.29" fill="#363636" opacity="0.61"/><polygon points="273.23 103.99 276.07 113.04 282.83 115.31 277.76 121.41 278.7 131.08 272.73 125.81 266.55 129.52 267.93 120.15 263.17 112.77 269.99 112.25 273.23 103.99" fill="#fd686a"/><polygon points="140.82 151.16 140.82 230.78 121.93 241.62 121.43 162.42 140.82 151.16" fill="#d1d1d1"/><polygon points="105.72 152.58 105.07 232.63 121.93 241.62 121.43 162.42 105.72 152.58" fill="#bcbcbc"/><polygon points="105.72 152.58 121.43 162.42 140.82 151.16 124.88 141.45 105.72 152.58" fill="#efefef"/><polyline points="116.73 149.42 116.73 154.79 127.49 150.75 127.49 144.26" fill="#ba3602"/><ellipse cx="122.11" cy="152.66" rx="5.83" ry="2.87" transform="translate(-54.08 67.97) rotate(-25.67)" fill="#ba3602"/><ellipse cx="122.1" cy="146.78" rx="5.96" ry="2.94" transform="translate(-51.53 67.38) rotate(-25.67)" fill="#dd5112"/><path d="M91.56,110.67s.72-2.7,1.3-3.1,7.43,1.84,7.92,3.1-.49,4.2-.49,4.2" fill="#dd5112"/><path d="M116,143.39a27.06,27.06,0,0,1,3.31.87c.68.35,6.89-1.55,7.77-.87s-1.44,3-1.84,3.5-8.46,1.82-8.46,1.82l-3.23-.76.54-3.21" fill="#efae73"/><path d="M115.7,146.78h3.56s4.88-2.15,5.68-2,3.46.58,2.55,2.61-7.1,3.81-7.1,3.81H114" fill="#fcbf81"/><path d="M119.26,146.78s3.07-3.6,4-2.82-1.84,2.82-1.84,2.82" fill="#fcbf81"/><path d="M99,131.32c.82,1,16,9.69,17.13,10.13s-2.66,6.5-2.66,6.5l-14.48-5" fill="#ba3602"/><path d="M88.68,237.83l4.36,2a2.48,2.48,0,0,0,1.68,1.8,1,1,0,0,0,.6.4,11.8,11.8,0,0,0,5.4-.43c2.2-.5,10.85-3,8,2.8-1.62,1-3.4,1.74-5,2.57-.92.47-1.85.93-2.8,1.35a5.32,5.32,0,0,1-1.63.6c-1.22.09-4.08-1.06-4.17-.75s-.56,2.59-.56,2.59-7.87,2.3-7.79-2.84C86.77,247.22,88.68,237.83,88.68,237.83Z" fill="#e55600"/><path d="M84.72,230.51s7.82-2.75,9.65-2.74,4.82.88,1.9,4c0,0-8.36,4.56-9.42,4.64s-3.54-.92-3.63-.65-.48,2.26-.48,2.26-6.85,2-6.78-2.47c0-.58,1.67-8.75,1.67-8.75" fill="#e55600"/><path d="M85.64,191.4c.28-15.17,1-30.39-1-45.49.17-3.87-2.52-1.6-2.23-3.12,2.35-12.31,19.26,3.92,19.26,3.92.68.66.47,4.47.54,5.35q.65,7.25.95,14.53c1,24.48-2,48.52-5.18,72.74-4.16,3.62-6.77,4.59-12.76,1.56,0-16,.15-32,.41-48Q85.63,192.12,85.64,191.4Z" fill="#fd686a"/><path d="M75.6,218.1c.39-6,1.12-12,1.64-18,.79-9.14.56-18.3.68-27.45,1.14-11.35,2.29-25.77,2.29-25.77l9.39,2.61s6.1,79.1-3.26,82.46-10.81-2.74-10.81-2.74S75.54,224.56,75.6,218.1Z" fill="#fd686a"/><path d="M85.54,153.45a.68.68,0,0,1,1.3.43c-4.46,13.65,2.93,27.76,1.5,41.68-.75,7.33-2.05,14.55-2.48,21.93A175.88,175.88,0,0,0,86.1,241c.07.88-1.3.8-1.37-.07a175.88,175.88,0,0,1-.24-23.51c.45-7.78,2-15.4,2.6-23.14C88.21,180.59,81.13,167,85.54,153.45Z" fill="#fd686a"/><path d="M103.14,166.59q-.31-7.27-.95-14.53c-.08-.87.14-4.69-.54-5.35,0,0-16.9-16.23-19.26-3.92-.29,1.52,2.41-.75,2.23,3.12.1.76.19,1.52.28,2.28l-4.69-1.31s-1.15,14.42-2.29,25.77c-.12,9.15.12,18.31-.68,27.45-.52,6-1.25,12-1.64,18-.06,6.46-.07,11.12-.07,11.12s1.24,5.17,8.78,3.34c.08,2.79.21,5.58.42,8.37.06.75,1.09.91,1.32.36,5.39,2.52,8,1.48,11.91-2C101.14,215.11,104.18,191.07,103.14,166.59Z" fill="#363636" opacity="0.61"/><path d="M101.9,115.4a8,8,0,0,0-3.06-2.78c-3.3-1.79-7.14-5.1-11.5,1.32a17.34,17.34,0,0,0-2.6,6.49A166.06,166.06,0,0,0,81.21,138q-.34,2.38-.57,4.78c-.08.82-.86,3.75-.33,4.41,1.26,1.55,3.52,2.56,5.46,3.24a41.18,41.18,0,0,0,11.6,2c.38,0,2.11.08,3.92,0,.94,0,1.58-22.19,1.6-24.28C102.93,124.14,104.19,119.05,101.9,115.4Z" fill="#dd5112"/><path d="M103.94,97.22c.35.28.16,9.53-3.3,13.6s-9.2-4.39-9.56-8.87S97.32,91.82,103.94,97.22Z" fill="#fcbf81"/><path d="M103.34,98.24a4.07,4.07,0,0,1-3.77,2.34c-2.61-.2-4.7-.5-5.06.59s4.09,1.7,3,4.06a19.32,19.32,0,0,1-2.79,4.41c-.77,1-5.83-5.56-5.26-12.61s6.81-6.11,7.1-6,1.54-1.33,4.51-.68,3.25,2.05,3.25,2.05a3.6,3.6,0,0,1,3.75,2.24c1.58,3.12-.71,6.44-4.2,6.62Z" fill="#ffba1c"/><path d="M87.35,119.25a6.35,6.35,0,0,1,1.29-1.7c1.75-1.64,5-2.55,7.07-1.11,3.88,2.64,6,19,8.05,20.28s12.39,8.48,12.39,8.48-1.08,6.17-2.38,7.31-13.62-4.39-16.46-6.52a25.71,25.71,0,0,1-8.95-13.17C87.21,129,85.3,123.17,87.35,119.25Z" fill="#dd5112"/><path d="M100.08,147.59a27.92,27.92,0,0,1-10.35-27.47c.13-.63-.84-.9-1-.27a29,29,0,0,0,10.81,28.6C100.09,148.84,100.58,148,100.08,147.59Z" fill="#ba3602"/><path d="M84.14,167.86a.5.5,0,0,0-1,0q0,36.8,1.71,73.57c0,.64,1,.64,1,0Q84.14,204.67,84.14,167.86Z" fill="#363636"/><polygon points="322.62 136.59 313.18 133.42 309.22 120.8 306.82 122.22 304.3 132.36 295.19 133.05 292.78 134.47 296.1 134.47 301.83 143.34 299.91 156.42 308.53 151.24 313.46 155.6 314.46 160.03 316.86 158.6 315.54 145.11 322.62 136.59" fill="#fd686a"/><polygon points="322.62 136.59 313.18 133.42 309.22 120.8 306.82 122.22 304.3 132.36 295.19 133.05 292.78 134.47 296.1 134.47 301.83 143.34 299.91 156.42 308.53 151.24 313.46 155.6 314.46 160.03 316.86 158.6 315.54 145.11 322.62 136.59" fill="#363636" opacity="0.61"/><polygon points="306.82 122.22 310.78 134.84 320.21 138.01 313.14 146.53 314.46 160.03 306.13 152.67 297.51 157.84 299.42 144.77 292.78 134.47 302.3 133.75 306.82 122.22" fill="#fd686a"/></svg>